<?xml version="1.0" encoding="UTF-8"?><svg id="Layer_1" xmlns="http://www.w3.org/2000/svg" xmlns:xlink="http://www.w3.org/1999/xlink" viewBox="0 0 707.82 717.47"><defs><style>.cls-1{stroke:#707070;stroke-linejoin:round;stroke-width:1.77px;}.cls-1,.cls-2{fill:none;}.cls-3{fill:#ea6e3d;}.cls-4{clip-path:url(#clippath);}.cls-5{fill:#ef4143;}.cls-6{fill:#e8b83f;}.cls-7{fill:#773720;}</style><clipPath id="clippath"><path class="cls-2" d="m707.82,375.7c0,153.28-158.45,277.54-353.91,277.54S0,528.98,0,375.7c0-102.42,70.74-191.89,176-239.98,52.27-23.88,113.05,9.34,177.91,9.34,70.38,0,135.97-30.8,191.08-3.02,97.95,49.36,162.83,135.57,162.83,233.65Z"/></clipPath></defs><path class="cls-7" d="m353.91,186.41c31.7,2.56,58.32-27.11,58.32-27.11,0,0-22.97-29.52-14.7-48.4,8.27-18.88,97.24-76.66,97.24-76.66V12.99l-16.93-12.99h-37.77s-90.92,54.22-100.37,76.64-.82,37.46-17.72,50.44c-16.9,12.98-35.43,32.14-35.43,32.14,0,0,37.92,24.81,67.34,27.18Z"/><path class="cls-3" d="m707.82,375.7c0,153.28-158.45,277.54-353.91,277.54S0,528.98,0,375.7c0-102.42,70.74-191.89,176-239.98,52.27-23.88,113.05,9.34,177.91,9.34,70.38,0,135.97-30.8,191.08-3.02,97.95,49.36,162.83,135.57,162.83,233.65Z"/><g class="cls-4"><path class="cls-1" d="m264.17,102.79c-32.12,24.83-175.94,162.92-193.69,240.73-17.75,77.81,2.23,230.07,61.21,299.73,58.97,69.66,20.16-166.37,40.28-270.23,20.12-103.86,154.77-300.88,191.35-293.78,36.58,7.1-36.7,206.43-45.02,310.92-8.32,104.49-37.18,323.99,35.61,326.39,72.79,2.4,149.66-166.33,140.87-336.28-8.79-169.96-97.22-269.47-61.82-286.99,35.4-17.52,167.94,77.23,211.12,226.53,43.17,149.31,6.91,315.47,6.91,315.47"/></g><path class="cls-5" d="m339.71,261.93s-51.83,79.06-105,49.52c-.94-.51-1.82-1.04-2.69-1.61-9.38-5.97-15.03-13.91-18.06-22.86-7.58-22.34,1.26-50.88,9.63-70.28,5.67-13.14,11.12-22.09,11.12-22.09l88.73,56.9,16.27,10.43Z"/><path class="cls-5" d="m540.33,311.62c-8.39,8.11-18.59,9.59-29.3,7.08-26.22-6.18-55.59-36.36-69.68-52.37-5.26-6-8.39-10-8.39-10l107.37-55.66s36.61,75.56,0,110.95Z"/><path class="cls-6" d="m511.03,318.7c-26.22-6.18-55.59-36.36-69.68-52.37l68.71-35.62s28.7,59.23.97,87.99Z"/><polygon class="cls-5" points="452.95 390.17 423.97 386.96 371.51 381.16 394.35 334.05 406.97 308.01 452.95 390.17"/><polygon class="cls-6" points="423.97 386.96 371.51 381.16 394.35 334.05 423.97 386.96"/><path class="cls-5" d="m608.72,429.68c-7.1,23.6-27.17,53.09-27.17,53.09l-11.79-20.08-21.26,11.79,8.11,25.97-51.8,17.69-10.02-27.16-41.83,3.52v30.59h-93.3v-25.93l-38.95-3.56-14.18,29.49-47.18-18.91v-25.95l-27.14-9.45-11.83,25.95s-34.2-43.69-54.24-74.39c-20-30.64-20.02-73.13-20.02-73.27.14.44.32.9.51,1.36,2.81,13.12,7.7,28.26,16.2,41.27,20.06,30.7,54.26,74.39,54.26,74.39l11.81-25.95,27.14,9.45v25.95l47.2,18.92,14.18-29.51,38.93,3.58v25.93h93.31v-30.61l41.81-3.52,10.04,27.16,51.78-17.69-8.09-25.97,21.24-11.79,11.79,20.08s20.09-29.49,27.17-53.09c3.72-12.37,3.54-35.44,2.53-54.6l.78-.92s7.1,62.56,0,86.16Z"/><path class="cls-6" d="m605.41,399.04c-7.08,23.6-27.17,53.09-27.17,53.09l-11.79-20.08-21.24,11.79,8.09,25.97-51.78,17.69-10.04-27.16-41.81,3.52v30.61h-93.31v-25.93l-38.93-3.58-14.18,29.51-47.2-18.92v-25.95l-27.14-9.45-11.81,25.95s-34.2-43.69-54.26-74.39c-8.5-13.01-13.38-28.15-16.2-41.27,6.11,14.41,49.99,50.51,49.99,50.51.14.12.21.18.21.18l-1.19,28.33,25.95,12.99,2.37-25.95,94.41,17.83,3.52,24.71,42.49,3.56,7.12-23.6,87.31-4.67,4.71,27.14,31.25-3.52v-30.68l54.93-17.67,1.17,18.87,23.62-15.33-5.9-22.96,39.34-45.73c1.01,19.15,1.19,42.22-2.53,54.6Z"/><path class="cls-6" d="m291.19,260.04s-34.36,52.42-69.59,32.82c-.62-.34-1.2-.69-1.79-1.06-2.27-1.45-4.2-3.06-5.84-4.82-7.58-22.34,1.26-50.88,9.63-70.28l56.81,36.43,10.78,6.9Z"/></svg>